<svg xmlns="http://www.w3.org/2000/svg" viewBox="0 0 240 200" role="img" aria-label="Dragon emblem">
  <defs>
    <linearGradient id="flame" x1="0" x2="1" y1="0" y2="1">
      <stop offset="0%" stop-color="#ffd27a" />
      <stop offset="55%" stop-color="#ff7f50" />
      <stop offset="100%" stop-color="#b53a2a" />
    </linearGradient>
  </defs>
  <path fill="url(#flame)" d="M120 18c-16 14-19 29-14 44-20-14-43-2-47 22-2 13 2 23 12 33-16-1-30 12-29 28 1 15 10 24 25 27-8 5-10 15-4 22 7 9 23 7 30-2 9 11 25 12 35 2 9 10 25 9 34-2 8 8 22 11 30 2 7-8 5-18-4-22 15-3 24-12 25-27 1-16-13-29-29-28 10-10 14-20 12-33-4-24-27-36-47-22 5-15 2-30-14-44z"/>
  <path fill="#26161a" d="M78 122c12-1 19-11 21-23 7 11 15 17 21 19 7-2 15-8 22-19 2 12 9 22 21 23-8 4-14 11-16 19-10-6-20-6-27-1-7-5-17-5-27 1-2-8-8-15-15-19z"/>
  <circle cx="98" cy="93" r="5" fill="#26161a"/>
  <circle cx="142" cy="93" r="5" fill="#26161a"/>
</svg>
